<mxfile host="app.diagrams.net" agent="Mozilla/5.0 (Windows NT 10.0; Win64; x64) AppleWebKit/537.36 (KHTML, like Gecko) Chrome/121.0.0.0 Safari/537.36" version="24.7.7">
  <diagram name="第 1 页" id="wLXx21Fm23lZZZEQYWWY">
    <mxGraphModel dx="1867" dy="3119" grid="1" gridSize="10" guides="1" tooltips="1" connect="1" arrows="1" fold="1" page="1" pageScale="1" pageWidth="3300" pageHeight="2339" math="0" shadow="0">
      <root>
        <mxCell id="0" />
        <mxCell id="1" parent="0" />
        <mxCell id="ofP-ixQ_01TL7051AIQX-2" value="&lt;div style=&quot;&quot;&gt;&lt;br&gt;&lt;/div&gt;" style="whiteSpace=wrap;html=1;aspect=fixed;align=left;" vertex="1" parent="1">
          <mxGeometry x="40" y="1050" width="370" height="370" as="geometry" />
        </mxCell>
        <mxCell id="ofP-ixQ_01TL7051AIQX-3" value="Flink应用" style="text;html=1;align=center;verticalAlign=middle;whiteSpace=wrap;rounded=0;" vertex="1" parent="1">
          <mxGeometry x="50" y="1070" width="80" height="30" as="geometry" />
        </mxCell>
        <mxCell id="ofP-ixQ_01TL7051AIQX-7" style="edgeStyle=orthogonalEdgeStyle;rounded=0;orthogonalLoop=1;jettySize=auto;html=1;exitX=0;exitY=0.5;exitDx=0;exitDy=0;entryX=0.5;entryY=0;entryDx=0;entryDy=0;" edge="1" parent="1" source="ofP-ixQ_01TL7051AIQX-4" target="ofP-ixQ_01TL7051AIQX-5">
          <mxGeometry relative="1" as="geometry" />
        </mxCell>
        <mxCell id="ofP-ixQ_01TL7051AIQX-4" value="应用代码" style="rounded=0;whiteSpace=wrap;html=1;" vertex="1" parent="1">
          <mxGeometry x="200" y="1120" width="130" height="40" as="geometry" />
        </mxCell>
        <mxCell id="ofP-ixQ_01TL7051AIQX-9" style="edgeStyle=orthogonalEdgeStyle;rounded=0;orthogonalLoop=1;jettySize=auto;html=1;exitX=0.5;exitY=1;exitDx=0;exitDy=0;entryX=0;entryY=0.5;entryDx=0;entryDy=0;" edge="1" parent="1" source="ofP-ixQ_01TL7051AIQX-5" target="ofP-ixQ_01TL7051AIQX-8">
          <mxGeometry relative="1" as="geometry" />
        </mxCell>
        <mxCell id="ofP-ixQ_01TL7051AIQX-5" value="Graph构建器" style="rounded=0;whiteSpace=wrap;html=1;" vertex="1" parent="1">
          <mxGeometry x="90" y="1220" width="120" height="40" as="geometry" />
        </mxCell>
        <mxCell id="ofP-ixQ_01TL7051AIQX-8" value="客户端" style="rounded=0;whiteSpace=wrap;html=1;" vertex="1" parent="1">
          <mxGeometry x="230" y="1299" width="110" height="51" as="geometry" />
        </mxCell>
        <mxCell id="ofP-ixQ_01TL7051AIQX-16" value="" style="whiteSpace=wrap;html=1;aspect=fixed;" vertex="1" parent="1">
          <mxGeometry x="100" y="-2110" width="1060" height="1060" as="geometry" />
        </mxCell>
        <mxCell id="ofP-ixQ_01TL7051AIQX-13" style="edgeStyle=orthogonalEdgeStyle;rounded=0;orthogonalLoop=1;jettySize=auto;html=1;exitX=0.5;exitY=1;exitDx=0;exitDy=0;entryX=0.5;entryY=0;entryDx=0;entryDy=0;" edge="1" parent="1" source="ofP-ixQ_01TL7051AIQX-10" target="ofP-ixQ_01TL7051AIQX-12">
          <mxGeometry relative="1" as="geometry" />
        </mxCell>
        <mxCell id="ofP-ixQ_01TL7051AIQX-10" value="Flink Client通过反射启动jar的函数" style="rounded=0;whiteSpace=wrap;html=1;" vertex="1" parent="1">
          <mxGeometry x="360" y="-1780" width="750" height="130" as="geometry" />
        </mxCell>
        <mxCell id="ofP-ixQ_01TL7051AIQX-15" style="edgeStyle=orthogonalEdgeStyle;rounded=0;orthogonalLoop=1;jettySize=auto;html=1;exitX=0.5;exitY=1;exitDx=0;exitDy=0;" edge="1" parent="1" source="ofP-ixQ_01TL7051AIQX-12" target="ofP-ixQ_01TL7051AIQX-14">
          <mxGeometry relative="1" as="geometry" />
        </mxCell>
        <mxCell id="ofP-ixQ_01TL7051AIQX-12" value="生成StreamGraph" style="rounded=0;whiteSpace=wrap;html=1;" vertex="1" parent="1">
          <mxGeometry x="360" y="-1580" width="750" height="130" as="geometry" />
        </mxCell>
        <mxCell id="ofP-ixQ_01TL7051AIQX-22" style="edgeStyle=orthogonalEdgeStyle;rounded=0;orthogonalLoop=1;jettySize=auto;html=1;exitX=0.5;exitY=1;exitDx=0;exitDy=0;" edge="1" parent="1" source="ofP-ixQ_01TL7051AIQX-14" target="ofP-ixQ_01TL7051AIQX-20">
          <mxGeometry relative="1" as="geometry" />
        </mxCell>
        <mxCell id="ofP-ixQ_01TL7051AIQX-14" value="生成JobGraph" style="rounded=0;whiteSpace=wrap;html=1;" vertex="1" parent="1">
          <mxGeometry x="360" y="-1290" width="750" height="130" as="geometry" />
        </mxCell>
        <mxCell id="ofP-ixQ_01TL7051AIQX-19" value="&lt;b&gt;&lt;font style=&quot;font-size: 48px;&quot;&gt;Flink 客户端&lt;/font&gt;&lt;/b&gt;" style="text;html=1;align=center;verticalAlign=middle;whiteSpace=wrap;rounded=0;" vertex="1" parent="1">
          <mxGeometry x="120" y="-2080" width="320" height="90" as="geometry" />
        </mxCell>
        <mxCell id="ofP-ixQ_01TL7051AIQX-20" value="" style="whiteSpace=wrap;html=1;aspect=fixed;" vertex="1" parent="1">
          <mxGeometry x="1060" y="-480" width="1140" height="1140" as="geometry" />
        </mxCell>
        <mxCell id="ofP-ixQ_01TL7051AIQX-21" value="&lt;font style=&quot;font-size: 48px;&quot;&gt;&lt;b&gt;Flink集群&lt;/b&gt;&lt;/font&gt;" style="text;html=1;align=center;verticalAlign=middle;whiteSpace=wrap;rounded=0;" vertex="1" parent="1">
          <mxGeometry x="1090" y="-460" width="310" height="110" as="geometry" />
        </mxCell>
        <mxCell id="ofP-ixQ_01TL7051AIQX-25" style="edgeStyle=orthogonalEdgeStyle;rounded=0;orthogonalLoop=1;jettySize=auto;html=1;exitX=0.5;exitY=1;exitDx=0;exitDy=0;entryX=0.5;entryY=0;entryDx=0;entryDy=0;" edge="1" parent="1" source="ofP-ixQ_01TL7051AIQX-23" target="ofP-ixQ_01TL7051AIQX-24">
          <mxGeometry relative="1" as="geometry" />
        </mxCell>
        <mxCell id="ofP-ixQ_01TL7051AIQX-23" value="JobGraph翻译成ExecutionGraph" style="rounded=0;whiteSpace=wrap;html=1;" vertex="1" parent="1">
          <mxGeometry x="1220" y="-310" width="770" height="120" as="geometry" />
        </mxCell>
        <mxCell id="ofP-ixQ_01TL7051AIQX-24" value="接收任务调度执行（物理执行拓扑DAG）" style="rounded=0;whiteSpace=wrap;html=1;" vertex="1" parent="1">
          <mxGeometry x="1220" y="40" width="770" height="120" as="geometry" />
        </mxCell>
        <mxCell id="ofP-ixQ_01TL7051AIQX-27" style="edgeStyle=orthogonalEdgeStyle;rounded=0;orthogonalLoop=1;jettySize=auto;html=1;exitX=0.5;exitY=1;exitDx=0;exitDy=0;entryX=0.5;entryY=0;entryDx=0;entryDy=0;" edge="1" parent="1" source="ofP-ixQ_01TL7051AIQX-26" target="ofP-ixQ_01TL7051AIQX-10">
          <mxGeometry relative="1" as="geometry" />
        </mxCell>
        <mxCell id="ofP-ixQ_01TL7051AIQX-26" value="ClientFrontend" style="rounded=0;whiteSpace=wrap;html=1;" vertex="1" parent="1">
          <mxGeometry x="360" y="-1970" width="750" height="130" as="geometry" />
        </mxCell>
      </root>
    </mxGraphModel>
  </diagram>
</mxfile>
